<svg id="Capa_1" enable-background="new 0 0 512 512" height="512" viewBox="0 0 512 512" width="512" xmlns="http://www.w3.org/2000/svg"><g><g><g><g><path d="m256 22c-135.31 0-245 109.69-245 245 0 115.685 80.186 212.629 188.005 238.32h113.99c107.819-25.691 188.005-122.635 188.005-238.32 0-135.31-109.69-245-245-245z" fill="#994334"/></g></g></g><g><g><g><circle cx="256" cy="312" fill="#82362b" r="180"/></g></g></g><g><g><g><path d="m451.44 119.23v.01l-138.39 386.08c-18.3 4.37-37.41 6.68-57.05 6.68s-38.75-2.31-57.05-6.68l-138.39-386.08v-.01l12.35-48.32 50.9-10.22 132.19-26.54 132.19 26.54 50.9 10.22z" fill="#ffd00d"/></g></g></g><g><g><g><path d="m132.337 90.408 3.174-32.068-11.701 2.35-50.9 10.22-12.35 48.32v.01l138.39 386.08c18.3 4.37 37.41 6.68 57.05 6.68s38.75-2.31 57.05-6.68l30.505-85.104c-96.139-58.425-171.406-209.938-211.218-329.808z" fill="#ffaf10"/></g></g></g><g><g><g><path d="m377.007 111.602c4.989 2.37 7.112 8.335 4.742 13.323-4.035 8.495-16.135 10.662-16.135 10.662s-5.965-10.748-1.931-19.243c2.371-4.988 8.336-7.112 13.324-4.742z" fill="#159e97"/></g></g></g><g><g><g><path d="m251.633 323.506c7.639 3.629 10.891 12.764 7.262 20.403-6.179 13.008-24.709 16.327-24.709 16.327s-9.135-16.459-2.956-29.468c3.629-7.639 12.764-10.89 20.403-7.262z" fill="#159e97"/></g></g></g><g><g><g><path d="m11 89.193c0 25.369 26.825 41.691 49.4 30.119 59.807-30.658 126.453-46.897 195.6-46.897s135.793 16.239 195.6 46.897c22.575 11.572 49.4-4.75 49.4-30.119 0-16.92-9.721-32.343-24.995-39.623-66.652-31.773-141.247-49.57-220.005-49.57s-153.353 17.797-220.005 49.569c-15.274 7.281-24.995 22.704-24.995 39.624z" fill="#ef8318"/></g></g></g><g><g><g><path d="m93 64c-5.244-18.326 4.402-37.384 21.762-44.255-27.254 7.809-53.579 17.817-78.768 29.824-15.273 7.281-24.994 22.704-24.994 39.624 0 25.369 26.825 41.691 49.4 30.119 23.045-11.813 47.109-21.476 71.937-28.903-17.484 1.942-34.335-8.929-39.337-26.409z" fill="#db722c"/></g></g></g><g><g><g><g><circle cx="174.202" cy="169.881" fill="#fe3745" r="39.993"/></g></g></g><g><g><g><path d="m158.29 189.878c-11.044-19.128-4.49-43.588 14.639-54.632 3.403-1.965 6.976-3.362 10.611-4.241-9.615-2.311-20.095-1.093-29.334 4.241-19.129 11.044-25.682 35.503-14.639 54.632 9.079 15.726 27.224 22.942 44.021 18.88-10.291-2.474-19.589-8.991-25.298-18.88z" fill="#ea2a3d"/></g></g></g><g><g><g><circle cx="174.202" cy="150.381" fill="#ea2a3d" r="7.5"/></g></g></g><g><g><g><circle cx="191.089" cy="179.631" fill="#ea2a3d" r="7.5"/></g></g></g><g><g><g><circle cx="157.314" cy="179.631" fill="#ea2a3d" r="7.5"/></g></g></g></g><g><g><g><g><circle cx="197.536" cy="442.398" fill="#fe3745" r="39.993"/></g></g></g><g><g><g><path d="m181.624 462.395c-11.044-19.128-4.49-43.588 14.639-54.632 3.403-1.965 6.976-3.362 10.611-4.241-9.615-2.311-20.095-1.093-29.334 4.241-19.129 11.044-25.682 35.503-14.639 54.632 9.079 15.726 27.224 22.942 44.021 18.88-10.291-2.474-19.588-8.991-25.298-18.88z" fill="#ea2a3d"/></g></g></g><g><g><g><circle cx="197.536" cy="422.898" fill="#ea2a3d" r="7.5"/></g></g></g><g><g><g><circle cx="214.424" cy="452.148" fill="#ea2a3d" r="7.5"/></g></g></g><g><g><g><circle cx="180.649" cy="452.148" fill="#ea2a3d" r="7.5"/></g></g></g></g><g><g><g><g><circle cx="402.5" cy="190.103" fill="#fe3745" r="39.993"/></g></g></g><g><g><g><path d="m386.589 210.099c-11.044-19.128-4.49-43.588 14.639-54.632 3.403-1.965 6.976-3.362 10.611-4.241-9.615-2.311-20.095-1.093-29.334 4.241-19.129 11.044-25.682 35.503-14.639 54.632 9.079 15.726 27.224 22.942 44.021 18.88-10.291-2.473-19.589-8.991-25.298-18.88z" fill="#ea2a3d"/></g></g></g><g><g><g><circle cx="402.5" cy="170.603" fill="#ea2a3d" r="7.5"/></g></g></g><g><g><g><circle cx="419.388" cy="199.853" fill="#ea2a3d" r="7.5"/></g></g></g><g><g><g><circle cx="385.613" cy="199.853" fill="#ea2a3d" r="7.5"/></g></g></g></g><g><g><g><g><circle cx="330.966" cy="329.859" fill="#fe3745" r="50"/></g></g></g><g><g><g><path d="m304.782 329.859c0-23.509 16.229-43.218 38.092-48.562-3.818-.933-7.803-1.438-11.908-1.438-27.614 0-50 22.386-50 50s22.386 50 50 50c4.105 0 8.09-.505 11.908-1.438-21.863-5.344-38.092-25.053-38.092-48.562z" fill="#ea2a3d"/></g></g></g><g><g><g><circle cx="330.966" cy="302.359" fill="#ea2a3d" r="7.5"/></g></g></g><g><g><g><circle cx="354.782" cy="343.609" fill="#ea2a3d" r="7.5"/></g></g></g><g><g><g><circle cx="307.151" cy="343.609" fill="#ea2a3d" r="7.5"/></g></g></g></g><g><g><g><path d="m251.805 263.721c4.977 3.054 11.596.382 12.851-5.32 3.059-13.894-2.78-28.801-15.589-36.661s-28.743-6.317-39.746 2.702c-4.516 3.702-3.901 10.813 1.076 13.867l11.002 6.752-13.196 11.62c-4.336 3.818-3.741 10.742 1.183 13.764l14.224 8.729c4.924 3.022 11.367.417 12.808-5.177l4.385-17.027z" fill="#bf7e52"/></g></g></g><g><g><g><path d="m287.93 396.532c3.686-1.81 4.586-6.749 1.668-9.639-7.109-7.041-18.166-9.173-27.653-4.514s-14.56 14.712-13.334 24.643c.503 4.076 4.961 6.384 8.648 4.573l8.15-4.002 1.947 12.212c.64 4.013 4.979 6.262 8.627 4.47l10.536-5.174c3.647-1.791 4.521-6.6 1.737-9.56l-8.474-9.007z" fill="#bf7e52"/></g></g></g><g><g><g><path d="m247.517 170.518c-1.735 0-3.478-.598-4.895-1.82-3.137-2.705-3.487-7.44-.783-10.578 2.018-2.339 2.907-5.314 2.508-8.376-.4-3.062-2.025-5.708-4.575-7.451-6.035-4.123-10.039-10.644-10.986-17.891-.947-7.248 1.246-14.58 6.019-20.115 2.706-3.139 7.441-3.487 10.578-.784 3.137 2.705 3.487 7.44.783 10.578-2.017 2.339-2.907 5.314-2.507 8.377.4 3.062 2.025 5.708 4.574 7.449 6.036 4.124 10.04 10.645 10.987 17.893s-1.247 14.579-6.021 20.115c-1.482 1.721-3.577 2.603-5.682 2.603z" fill="#159e97"/></g></g></g><g><g><g><path d="m286.435 489.928c-3.979 0-7.295-3.127-7.485-7.144-.086-1.797-1.104-2.881-1.704-3.368-.6-.486-1.865-1.257-3.646-.974-5.51.887-11.152-.62-15.484-4.135-4.332-3.516-6.97-8.728-7.235-14.301-.197-4.137 2.996-7.651 7.134-7.849 4.161-.186 7.651 2.998 7.849 7.134.086 1.797 1.104 2.882 1.704 3.368.601.487 1.87 1.259 3.646.974 5.513-.891 11.152.619 15.485 4.135 4.332 3.516 6.97 8.729 7.234 14.303.197 4.137-2.997 7.651-7.135 7.848-.122.006-.243.009-.363.009z" fill="#159e97"/></g></g></g><g><g><g><path d="m146.58 290.868c-3.372 0-6.437-2.29-7.277-5.711-.989-4.022 1.47-8.085 5.492-9.074 2.285-.562 4.151-2.016 5.255-4.093s1.263-4.437.448-6.644c-2.277-6.179-1.812-13.058 1.276-18.873s8.527-10.051 14.921-11.622c4.018-.99 8.085 1.471 9.073 5.493s-1.471 8.084-5.493 9.073c-2.284.562-4.15 2.015-5.254 4.092-1.104 2.078-1.264 4.438-.449 6.646 2.277 6.176 1.813 13.054-1.274 18.869-3.089 5.815-8.527 10.052-14.921 11.625-.602.147-1.204.219-1.797.219z" fill="#159e97"/></g></g></g><g><g><g><path d="m206.377 370.277-15.766 7.277c-1.831.845-4.001.046-4.846-1.785l-7.277-15.766c-.845-1.831-.046-4.001 1.785-4.846l15.766-7.277c1.831-.845 4.001-.046 4.846 1.785l7.277 15.766c.845 1.831.046 4-1.785 4.846z" fill="#fe3745"/></g></g></g><g><g><g><path d="m344.118 236.2-13.807 19.355c-1.604 2.248-4.726 2.771-6.974 1.167l-19.355-13.807c-2.248-1.604-2.771-4.726-1.167-6.974l13.806-19.355c1.604-2.248 4.726-2.771 6.974-1.167l19.355 13.807c2.249 1.604 2.771 4.726 1.168 6.974z" fill="#fe3745"/></g></g></g><g><g><g><path d="m234.639 273.996.733-2.847c-9.247-12.611-14.696-47.923-3.307-54.377-8.789-.697-17.625 2.016-24.522 7.67-4.516 3.702-3.901 10.813 1.076 13.867l11.002 6.752-13.196 11.62c-4.336 3.818-3.741 10.742 1.183 13.764l14.224 8.729c4.924 3.022 11.367.417 12.807-5.178z" fill="#a86639"/></g></g></g><g><g><g><path d="m267.355 419.804c.64 4.012 4.979 6.261 8.627 4.47l10.536-5.174c3.374-1.657 4.368-5.893 2.295-8.862-18.062-.503-28.964-16.702-32.837-23.702-5.56 5.269-8.299 12.908-7.365 20.484.503 4.076 4.961 6.384 8.648 4.573l8.15-4.002z" fill="#a86639"/></g></g></g><g><g><g><path d="m329.968 149.737c3.686-1.81 4.586-6.749 1.668-9.639-7.109-7.041-18.166-9.173-27.653-4.514s-14.56 14.712-13.334 24.643c.503 4.076 4.961 6.384 8.648 4.573l8.15-4.002 1.947 12.212c.64 4.013 4.979 6.262 8.627 4.47l10.536-5.174c3.647-1.791 4.521-6.6 1.737-9.56l-8.474-9.007z" fill="#bf7e52"/></g></g></g><g><g><g><path d="m309.393 173.009c.64 4.012 4.979 6.261 8.627 4.47l10.536-5.174c3.374-1.657 4.368-5.893 2.295-8.862-18.062-.503-28.964-16.702-32.837-23.702-5.56 5.269-8.299 12.908-7.365 20.484.503 4.076 4.961 6.384 8.648 4.573l8.15-4.002z" fill="#a86639"/></g></g></g><g><g><g><circle cx="311.92" cy="104.319" fill="#ffaf10" r="10"/></g></g></g><g><g><g><circle cx="279.882" cy="207.354" fill="#ffaf10" r="10"/></g></g></g><g><g><g><circle cx="251.938" cy="192.351" fill="#ffaf10" r="7.5"/></g></g></g><g><g><g><circle cx="414.532" cy="135.587" fill="#ffaf10" r="7.5"/></g></g></g><g><g><g><circle cx="280.966" cy="118.132" fill="#ffaf10" r="7.5"/></g></g></g><g><g><g><circle cx="100.106" cy="164.63" fill="#ef8318" r="7.5"/></g></g></g><g><g><g><circle cx="190.036" cy="302.359" fill="#ef8318" r="7.5"/></g></g></g><g><g><g><circle cx="244.002" cy="492.316" fill="#ef8318" r="7.5"/></g></g></g><g><g><g><circle cx="184.202" cy="102.162" fill="#ffaf10" r="10"/></g></g></g><g><g><g><circle cx="107.606" cy="135.587" fill="#ef8318" r="10"/></g></g></g><g><g><g><circle cx="129.596" cy="230.103" fill="#ef8318" r="10"/></g></g></g><g><g><g><circle cx="372.501" cy="257.866" fill="#ffaf10" r="10"/></g></g></g><g><g><g><circle cx="262.405" cy="292.359" fill="#ffaf10" r="10"/></g></g></g><g><g><g><circle cx="307.151" cy="444.647" fill="#ef8318" r="10"/></g></g></g><g><g><g><circle cx="168.486" cy="329.859" fill="#ef8318" r="10"/></g></g></g></g></svg>